<svg id="图层_1" data-name="图层 1" xmlns="http://www.w3.org/2000/svg" viewBox="0 0 372.61 100.89"><defs><style>.cls-1{fill:#223756;}.cls-2{fill:#932727;}.cls-3{fill:#193452;}.cls-4{fill:#9eccd0;}.cls-5{fill:#fff;}</style></defs><path class="cls-1" d="M199.12,14.43V68.71a3.58,3.58,0,0,1-3.58,3.59h-7.19a3.59,3.59,0,0,1-3.59-3.59V14.43a3.58,3.58,0,0,1,3.59-3.58h7.19A3.58,3.58,0,0,1,199.12,14.43Z"/><path class="cls-1" d="M249.3,26.18l-4.83,1.62a3.79,3.79,0,0,1-4.39-1.67q-2.79-4.36-8.88-4.36-8.28,0-8.28,5.37a4.84,4.84,0,0,0,1.55,3.62q1.54,1.48,7,2.58a70.15,70.15,0,0,1,13.35,3.72,17.1,17.1,0,0,1,7.13,6,16,16,0,0,1,2.9,9.32,18.59,18.59,0,0,1-6.22,14q-6.23,5.89-18.44,5.9a28.07,28.07,0,0,1-15.6-4.17,19,19,0,0,1-7-8.09,3.73,3.73,0,0,1,2.55-5.21l5.75-1.3a3.77,3.77,0,0,1,4.16,2q2.94,5.63,11.09,5.62,4.8,0,7.15-1.85a5.51,5.51,0,0,0,2.35-4.44,4.62,4.62,0,0,0-2.14-4.06q-2.13-1.44-8.24-2.71-11.39-2.35-16.22-6.44a14,14,0,0,1-4.77-10,19,19,0,0,1,4.17-13.7q5.93-7.1,17.22-7.09,14.7,0,20.61,9.84A3.74,3.74,0,0,1,249.3,26.18Z"/><path class="cls-1" d="M305.31,22.55H283.19a3.57,3.57,0,0,0-3.57,3.57v5.46a3.57,3.57,0,0,0,3.57,3.58h15.86a3.57,3.57,0,0,1,3.58,3.57v4.42a3.58,3.58,0,0,1-3.58,3.58H283.19a3.57,3.57,0,0,0-3.57,3.57v6.27a3.57,3.57,0,0,0,3.57,3.57h22.12a3.57,3.57,0,0,1,3.57,3.58v5a3.57,3.57,0,0,1-3.57,3.57H268.56A3.57,3.57,0,0,1,265,68.73V14.42a3.57,3.57,0,0,1,3.57-3.57h36.75a3.57,3.57,0,0,1,3.57,3.57V19A3.57,3.57,0,0,1,305.31,22.55Z"/><path class="cls-1" d="M357.88,22.55H335.7a3.55,3.55,0,0,0-3.54,3.55v5.51a3.55,3.55,0,0,0,3.54,3.55h15.92a3.53,3.53,0,0,1,3.54,3.54v4.48a3.54,3.54,0,0,1-3.54,3.55H335.7a3.54,3.54,0,0,0-3.54,3.54V56.6a3.54,3.54,0,0,0,3.54,3.54h22.18a3.54,3.54,0,0,1,3.54,3.55v5.07a3.54,3.54,0,0,1-3.54,3.54H321.07a3.54,3.54,0,0,1-3.54-3.54V14.39a3.53,3.53,0,0,1,3.54-3.54h36.81a3.53,3.53,0,0,1,3.54,3.54V19A3.53,3.53,0,0,1,357.88,22.55Z"/><path class="cls-2" d="M66.22,94.63l.1-1.31.12-2.73.09-2.7v-1h1.22c-.08,1-.13,2-.17,3-.06,1.66-.11,3.26-.14,4.81H66.22Z"/><path class="cls-3" d="M69.16,94.63q.28-3.57.3-5.78h1.08L70.46,90l.24-.37a1.94,1.94,0,0,1,.25-.27,2.45,2.45,0,0,1,.35-.26,2.49,2.49,0,0,1,.49-.21,5.78,5.78,0,0,1,.57-.12,3.69,3.69,0,0,1,.58,0,4.29,4.29,0,0,1,1,.12,1.93,1.93,0,0,1,.8.39,1.3,1.3,0,0,1,.42.61,2.37,2.37,0,0,1,.1.72v.29c0,.14,0,.32,0,.55l-.12,2.39c0,.23,0,.51,0,.84H74c0-.46.07-.9.09-1.33L74.2,92c0-.45,0-.8,0-1a1.53,1.53,0,0,0-.18-.8,1.2,1.2,0,0,0-.58-.47,2.57,2.57,0,0,0-.9-.16,2.26,2.26,0,0,0-1.22.32,1.92,1.92,0,0,0-.72.82,4.07,4.07,0,0,0-.25,1.13c-.06.6-.1,1.55-.13,2.85H69.16Z"/><path class="cls-3" d="M79.82,93.88c0,.19-.09.43-.15.74-.27.06-.49.1-.65.12l-.47,0a2.35,2.35,0,0,1-.87-.13,1,1,0,0,1-.51-.41,1.44,1.44,0,0,1-.17-.77v-.22q0-.17.06-1.11l.15-2.56H76.4c0-.16,0-.39,0-.69h.83c0-.21,0-.57.06-1.09l1-.19c0,.56,0,1,0,1.28h1.69c0,.24,0,.47,0,.69H78.22l-.16,3.21V93a1.45,1.45,0,0,0,.1.62.62.62,0,0,0,.3.3,1.06,1.06,0,0,0,.42.09,1.94,1.94,0,0,0,.33,0Z"/><path class="cls-3" d="M85.76,93.73c-.05.2-.1.47-.15.79a7.22,7.22,0,0,1-1,.19,8.27,8.27,0,0,1-.86.05,5.16,5.16,0,0,1-1.36-.17,2.46,2.46,0,0,1-1-.6,2.41,2.41,0,0,1-.62-1,3.44,3.44,0,0,1-.19-1.16,3.65,3.65,0,0,1,.35-1.58,2.55,2.55,0,0,1,1-1.14,3.39,3.39,0,0,1,1.77-.42,3.72,3.72,0,0,1,1.06.15,2.14,2.14,0,0,1,.84.46,2,2,0,0,1,.51.76,2.46,2.46,0,0,1,.19,1,1.75,1.75,0,0,1,0,.4H81.61q0,.31,0,.48a2.34,2.34,0,0,0,.27,1.11,1.76,1.76,0,0,0,.79.76,2.73,2.73,0,0,0,1.21.26A6.48,6.48,0,0,0,85.76,93.73ZM81.66,91h3.62a2.61,2.61,0,0,0,0-.56,1.64,1.64,0,0,0-.15-.42,1.4,1.4,0,0,0-.32-.37,1.6,1.6,0,0,0-.47-.24,2.35,2.35,0,0,0-.6-.08,2.39,2.39,0,0,0-.66.09,2.21,2.21,0,0,0-.56.25,1.61,1.61,0,0,0-.4.38,1.67,1.67,0,0,0-.25.41A2.75,2.75,0,0,0,81.66,91Z"/><path class="cls-3" d="M87.33,94.63c.08-1.17.16-2.56.24-4.16q.08-1.75.12-3.63h1.1l-.18,3.35-.14,3.39,0,1H87.33Z"/><path class="cls-3" d="M90.13,94.63c.08-1.17.16-2.56.23-4.16q.09-1.75.12-3.63h1.11l-.19,3.35-.13,3.39,0,1H90.13Z"/><path class="cls-3" d="M93,94.63l.1-1.44.12-2.45,0-1.89h1.11c0,.59-.09,1.22-.13,1.86s-.07,1.36-.09,2.13,0,1.37,0,1.79H93Zm.27-7c0-.36,0-.63,0-.81h1.18c0,.11,0,.38,0,.81H93.22Z"/><path class="cls-3" d="M96.1,96.31a10.77,10.77,0,0,0,1.35.3,6,6,0,0,0,1,.08,3.14,3.14,0,0,0,.94-.13,1.72,1.72,0,0,0,.62-.31,1.18,1.18,0,0,0,.32-.4,2.69,2.69,0,0,0,.22-.82q.06-.41.09-1.62-.15.25-.27.42a2.4,2.4,0,0,1-.32.33,2.37,2.37,0,0,1-.47.3,2.82,2.82,0,0,1-.62.2,2.87,2.87,0,0,1-.73.08,3.77,3.77,0,0,1-1-.14,2.26,2.26,0,0,1-.87-.48,2.22,2.22,0,0,1-.58-.84,3,3,0,0,1-.19-1.07,3.82,3.82,0,0,1,.29-1.47,3.15,3.15,0,0,1,.87-1.17A3.4,3.4,0,0,1,98,88.91a6,6,0,0,1,1.57-.19,15.24,15.24,0,0,1,2.33.23l-.07.71-.18,3.2c0,.06,0,.45,0,1.16l0,1.18a3.9,3.9,0,0,1-.11.67,2.44,2.44,0,0,1-.19.44,1.6,1.6,0,0,1-.28.35,1.57,1.57,0,0,1-.37.3,1.85,1.85,0,0,1-.45.21,4.32,4.32,0,0,1-.71.17,5.79,5.79,0,0,1-.83.06,11.17,11.17,0,0,1-1.17-.06,10.71,10.71,0,0,1-1.29-.21v-.32C96.14,96.74,96.13,96.57,96.1,96.31Zm4.68-6.74a7.4,7.4,0,0,0-1.27-.13,4.67,4.67,0,0,0-1.1.13,2.55,2.55,0,0,0-.94.48,2.46,2.46,0,0,0-.66.91,3,3,0,0,0-.23,1.14,2.37,2.37,0,0,0,.21,1,1.45,1.45,0,0,0,.67.69,2.13,2.13,0,0,0,1,.23,2.23,2.23,0,0,0,.88-.16,1.74,1.74,0,0,0,.68-.5,2.23,2.23,0,0,0,.47-.8,4.57,4.57,0,0,0,.17-.95C100.72,91.29,100.75,90.6,100.78,89.57Z"/><path class="cls-3" d="M108.28,93.73c0,.2-.1.47-.15.79a7,7,0,0,1-1,.19,8.24,8.24,0,0,1-.85.05,5.19,5.19,0,0,1-1.37-.17A2.48,2.48,0,0,1,103.24,93a3.71,3.71,0,0,1-.19-1.16,3.65,3.65,0,0,1,.35-1.58,2.55,2.55,0,0,1,1-1.14,3.41,3.41,0,0,1,1.77-.42,3.72,3.72,0,0,1,1.06.15,2,2,0,0,1,.84.46,2.06,2.06,0,0,1,.52.76,2.64,2.64,0,0,1,.18,1,1.75,1.75,0,0,1,0,.4h-4.64a4.75,4.75,0,0,0,0,.48,2.33,2.33,0,0,0,.26,1.11,1.81,1.81,0,0,0,.79.76,2.73,2.73,0,0,0,1.21.26A6.48,6.48,0,0,0,108.28,93.73ZM104.18,91h3.63a5.23,5.23,0,0,0,0-.56,1.7,1.7,0,0,0-.16-.42,1.24,1.24,0,0,0-.32-.37,1.6,1.6,0,0,0-.47-.24,2.23,2.23,0,0,0-.6-.08,2.39,2.39,0,0,0-.66.09,2.14,2.14,0,0,0-.55.25,1.89,1.89,0,0,0-.66.79A2.75,2.75,0,0,0,104.18,91Z"/><path class="cls-3" d="M109.81,94.63q.3-3.57.31-5.78h1.08L111.11,90l.25-.37a2.6,2.6,0,0,1,.24-.27,2.09,2.09,0,0,1,.36-.26,2.49,2.49,0,0,1,.49-.21,4.78,4.78,0,0,1,.57-.12,3.64,3.64,0,0,1,.57,0,4.17,4.17,0,0,1,1,.12,1.87,1.87,0,0,1,.8.39,1.3,1.3,0,0,1,.42.61,2.36,2.36,0,0,1,.11.72s0,.15,0,.29,0,.32,0,.55l-.12,2.39c0,.23,0,.51,0,.84h-1.08c0-.46.07-.9.09-1.33l.08-1.33c0-.45,0-.8,0-1a1.53,1.53,0,0,0-.18-.8,1.18,1.18,0,0,0-.59-.47,2.57,2.57,0,0,0-.9-.16,2.25,2.25,0,0,0-1.21.32,1.92,1.92,0,0,0-.72.82,3.74,3.74,0,0,0-.25,1.13c-.06.6-.11,1.55-.13,2.85h-1.1Z"/><path class="cls-3" d="M120.48,93.88c0,.19-.1.43-.15.74l-.66.12-.46,0a2.35,2.35,0,0,1-.87-.13,1,1,0,0,1-.51-.41,1.44,1.44,0,0,1-.18-.77,2.13,2.13,0,0,1,0-.22q0-.17.06-1.11l.15-2.56h-.81c0-.16,0-.39,0-.69h.83c0-.21,0-.57.06-1.09l1-.19c0,.56,0,1,0,1.28h1.69c0,.24,0,.47,0,.69h-1.68l-.17,3.21V93a1.45,1.45,0,0,0,.1.62.55.55,0,0,0,.3.3,1,1,0,0,0,.42.09,1.94,1.94,0,0,0,.33,0Z"/><path class="cls-2" d="M124.28,94.43c0-.36,0-.68-.08-.94a6.7,6.7,0,0,0,1.16.4,4.29,4.29,0,0,0,1,.11,2.41,2.41,0,0,0,.85-.14,1.38,1.38,0,0,0,.59-.41,1,1,0,0,0,.19-.61,1.1,1.1,0,0,0-.06-.37,1.4,1.4,0,0,0-.22-.36,3.78,3.78,0,0,0-.52-.48c-.24-.21-.59-.49-1-.85l-.45-.35c-.17-.14-.32-.28-.46-.41a3,3,0,0,1-.57-.73,1.17,1.17,0,0,1-.11-.33,1.65,1.65,0,0,1,0-.38,1.62,1.62,0,0,1,.29-.92,1.94,1.94,0,0,1,.86-.69,3.79,3.79,0,0,1,1.52-.25,9.4,9.4,0,0,1,1.66.17q0,.36.09.9a5.39,5.39,0,0,0-1.7-.31,2,2,0,0,0-.87.16,1.31,1.31,0,0,0-.54.42.89.89,0,0,0-.18.52,1.12,1.12,0,0,0,.05.31,1.28,1.28,0,0,0,.14.29,4,4,0,0,0,.35.4c.14.13.33.3.57.49l.7.54c.4.31.7.55.88.72a3.1,3.1,0,0,1,.44.48,1.81,1.81,0,0,1,.26.47,1.67,1.67,0,0,1,.09.55,1.76,1.76,0,0,1-.21.85,1.8,1.8,0,0,1-.6.63,2.84,2.84,0,0,1-.88.35,5.38,5.38,0,0,1-1,.1,6.58,6.58,0,0,1-.87-.06A12.53,12.53,0,0,1,124.28,94.43Z"/><path class="cls-3" d="M135.46,93.73c-.05.2-.1.47-.15.79a7.22,7.22,0,0,1-1,.19,8.27,8.27,0,0,1-.86.05,5.16,5.16,0,0,1-1.36-.17,2.46,2.46,0,0,1-1-.6,2.41,2.41,0,0,1-.62-1,3.44,3.44,0,0,1-.19-1.16,3.65,3.65,0,0,1,.35-1.58,2.55,2.55,0,0,1,1-1.14,3.36,3.36,0,0,1,1.77-.42,3.72,3.72,0,0,1,1.06.15,2.14,2.14,0,0,1,.84.46,2,2,0,0,1,.51.76,2.46,2.46,0,0,1,.19,1,2.58,2.58,0,0,1,0,.4h-4.64q0,.31,0,.48a2.34,2.34,0,0,0,.27,1.11,1.76,1.76,0,0,0,.79.76,2.73,2.73,0,0,0,1.21.26A6.48,6.48,0,0,0,135.46,93.73ZM131.36,91H135a2.61,2.61,0,0,0,0-.56,1.64,1.64,0,0,0-.15-.42,1.4,1.4,0,0,0-.32-.37,1.6,1.6,0,0,0-.47-.24,2.35,2.35,0,0,0-.6-.08,2.39,2.39,0,0,0-.66.09,2.21,2.21,0,0,0-.56.25,1.61,1.61,0,0,0-.4.38,1.67,1.67,0,0,0-.25.41A2.75,2.75,0,0,0,131.36,91Z"/><path class="cls-3" d="M137,94.63c.19-2.38.3-4.31.3-5.78h1.08L138.29,90l.24-.37.25-.27a2.09,2.09,0,0,1,.36-.26,2.67,2.67,0,0,1,.48-.21,5.78,5.78,0,0,1,.57-.12,3.86,3.86,0,0,1,.58,0,4.23,4.23,0,0,1,1,.12,1.93,1.93,0,0,1,.8.39,1.3,1.3,0,0,1,.42.61,2.36,2.36,0,0,1,.11.72s0,.15,0,.29,0,.32,0,.55L143,93.79c0,.23,0,.51,0,.84h-1.08c0-.46.07-.9.09-1.33L142,92c0-.45,0-.8,0-1a1.44,1.44,0,0,0-.19-.8,1.16,1.16,0,0,0-.58-.47,2.57,2.57,0,0,0-.9-.16,2.23,2.23,0,0,0-1.21.32,1.92,1.92,0,0,0-.72.82,3.74,3.74,0,0,0-.25,1.13c-.06.6-.11,1.55-.13,2.85H137Z"/><path class="cls-3" d="M144.26,94.52l0-.42s0-.19-.05-.43a4.72,4.72,0,0,0,1.73.38,2,2,0,0,0,.7-.1.87.87,0,0,0,.43-.31.72.72,0,0,0,.14-.41.67.67,0,0,0,0-.24.57.57,0,0,0-.12-.23,1.28,1.28,0,0,0-.23-.25c-.1-.09-.32-.26-.65-.5l-.74-.58A2.91,2.91,0,0,1,145,91a1.58,1.58,0,0,1-.26-.44,1.2,1.2,0,0,1-.09-.45,1.16,1.16,0,0,1,.25-.71,1.41,1.41,0,0,1,.71-.51,3.24,3.24,0,0,1,1.09-.17,8.79,8.79,0,0,1,1.54.15c0,.3,0,.57.06.82a3.58,3.58,0,0,0-1.34-.26,2.36,2.36,0,0,0-.67.09.76.76,0,0,0-.45.26.59.59,0,0,0-.14.39.58.58,0,0,0,.05.26.81.81,0,0,0,.17.27,1.66,1.66,0,0,0,.3.29l.7.54a7.43,7.43,0,0,1,.72.58,4,4,0,0,1,.34.39,1.45,1.45,0,0,1,.2.39,1.47,1.47,0,0,1,.07.41A1.24,1.24,0,0,1,148,94a1.59,1.59,0,0,1-.75.53,3,3,0,0,1-1.12.19l-.61,0a5.91,5.91,0,0,1-.6-.08Z"/><path class="cls-3" d="M149.52,94.63l.11-1.44.11-2.45,0-1.89h1.11c0,.59-.08,1.22-.12,1.86s-.07,1.36-.09,2.13,0,1.37,0,1.79h-1.13Zm.28-7c0-.36,0-.63,0-.81H151c0,.11,0,.38,0,.81H149.8Z"/><path class="cls-3" d="M152.26,94.63q.28-3.57.3-5.78h1.08L153.56,90l.24-.37a2.85,2.85,0,0,1,.25-.27,2.09,2.09,0,0,1,.36-.26,2.39,2.39,0,0,1,.48-.21l.57-.12a3.77,3.77,0,0,1,.58,0,4.23,4.23,0,0,1,1,.12,1.93,1.93,0,0,1,.8.39,1.3,1.3,0,0,1,.42.61,2.37,2.37,0,0,1,.1.72v.29c0,.14,0,.32,0,.55l-.12,2.39c0,.23,0,.51,0,.84h-1.08c0-.46.07-.9.09-1.33L157.3,92c0-.45,0-.8,0-1a1.44,1.44,0,0,0-.19-.8,1.16,1.16,0,0,0-.58-.47,2.57,2.57,0,0,0-.9-.16,2.29,2.29,0,0,0-1.22.32,2,2,0,0,0-.71.82,3.46,3.46,0,0,0-.25,1.13c-.07.6-.11,1.55-.13,2.85h-1.1Z"/><path class="cls-3" d="M160.19,96.31a10.77,10.77,0,0,0,1.35.3,6,6,0,0,0,1,.08,3.12,3.12,0,0,0,.93-.13,1.72,1.72,0,0,0,.62-.31,1.18,1.18,0,0,0,.32-.4,2.69,2.69,0,0,0,.22-.82q.06-.41.09-1.62-.15.25-.27.42a2.4,2.4,0,0,1-.32.33,2.61,2.61,0,0,1-.46.3,3.22,3.22,0,0,1-.62.2,3,3,0,0,1-.73.08,3.84,3.84,0,0,1-1-.14,2.33,2.33,0,0,1-.87-.48,2.09,2.09,0,0,1-.57-.84,2.79,2.79,0,0,1-.2-1.07,3.82,3.82,0,0,1,.29-1.47,3.15,3.15,0,0,1,.87-1.17,3.4,3.4,0,0,1,1.28-.66,6,6,0,0,1,1.57-.19A15.24,15.24,0,0,1,166,89l-.07.71-.18,3.2c0,.06,0,.45,0,1.16l0,1.18a3.9,3.9,0,0,1-.11.67,2.44,2.44,0,0,1-.19.44,1.6,1.6,0,0,1-.28.35,1.57,1.57,0,0,1-.37.3,1.85,1.85,0,0,1-.45.21,4.32,4.32,0,0,1-.71.17,5.79,5.79,0,0,1-.83.06,11.46,11.46,0,0,1-1.17-.06,10.27,10.27,0,0,1-1.28-.21l0-.32C160.23,96.74,160.22,96.57,160.19,96.31Zm4.68-6.74a7.4,7.4,0,0,0-1.27-.13,4.74,4.74,0,0,0-1.1.13,2.43,2.43,0,0,0-.93.48,2.26,2.26,0,0,0-.66.91,2.85,2.85,0,0,0-.24,1.14,2.37,2.37,0,0,0,.21,1,1.45,1.45,0,0,0,.67.69,2.13,2.13,0,0,0,1,.23,2.23,2.23,0,0,0,.88-.16,1.85,1.85,0,0,0,.69-.5,2.36,2.36,0,0,0,.46-.8,4,4,0,0,0,.17-.95C164.81,91.29,164.84,90.6,164.87,89.57Z"/><path class="cls-2" d="M170.57,94.63l.15-2.14.17-4,0-.87c0-.22,0-.47,0-.76h5.38c0,.27-.05.53-.06.8l-.54,0-.69,0h-1c-1,0-1.63,0-2,0l-.11,2.67h1.68c.54,0,1.24,0,2.12,0a7.13,7.13,0,0,0,0,.79l-2.1,0-1.71,0-.11,2.81h2.92l1.32,0c0,.28-.05.55-.06.8h-5.37Z"/><path class="cls-3" d="M176.64,94.63l1.63-2,.82-1-1.82-2.68h1.24c.23.4.66,1.1,1.31,2.09.79-1,1.3-1.74,1.54-2.09h1.19l-1,1.28-1.08,1.37c.47.72.86,1.29,1.17,1.73l1,1.4h-1.26q-.31-.57-.78-1.29l-.81-1.24-.75,1q-.63.84-1.11,1.53h-1.22Z"/><path class="cls-3" d="M183.38,97.21c.08-1,.16-2.31.23-4s.11-3.08.12-4.15c.66-.13,1.2-.22,1.59-.27a9.82,9.82,0,0,1,1.21-.07,4.39,4.39,0,0,1,1.65.28,2.16,2.16,0,0,1,1.08,1,3.31,3.31,0,0,1,.39,1.61,4,4,0,0,1-.18,1.2,3.08,3.08,0,0,1-.56,1,2.53,2.53,0,0,1-.9.69,3,3,0,0,1-1.18.23,3.1,3.1,0,0,1-1.38-.32,2.17,2.17,0,0,1-.44-.32,6.45,6.45,0,0,1-.44-.53l-.07,2.26c0,.37,0,.63,0,.8v.56h-1.1Zm1.39-7.47,0,.43,0,.6c0,.31,0,.56,0,.76s0,.33,0,.41a2.92,2.92,0,0,0,.1.8,1.56,1.56,0,0,0,.37.69,1.74,1.74,0,0,0,.67.47,1.88,1.88,0,0,0,2.55-1,3,3,0,0,0,.27-1.28,2.41,2.41,0,0,0-.28-1.21,1.63,1.63,0,0,0-.73-.74,2.38,2.38,0,0,0-1-.22A5.61,5.61,0,0,0,184.77,89.74Z"/><path class="cls-3" d="M190.85,94.63c.08-1.17.16-2.56.24-4.16,0-1.17.09-2.38.11-3.63h1.11l-.19,3.35L192,93.58l0,1h-1.12Z"/><path class="cls-3" d="M196.71,88.72a4.37,4.37,0,0,1,1.21.17,2.61,2.61,0,0,1,1,.54,2.34,2.34,0,0,1,.65.94,3.35,3.35,0,0,1,.22,1.19,3.57,3.57,0,0,1-.24,1.3,2.8,2.8,0,0,1-.66,1.06,2.54,2.54,0,0,1-1,.64,4.33,4.33,0,0,1-1.31.2,4.06,4.06,0,0,1-1.23-.18,2.69,2.69,0,0,1-1-.58,2.35,2.35,0,0,1-.64-1,3.08,3.08,0,0,1-.22-1.17,3.48,3.48,0,0,1,.4-1.68A2.49,2.49,0,0,1,195,89.09,3.78,3.78,0,0,1,196.71,88.72Zm0,.72a2.26,2.26,0,0,0-1.14.3,1.73,1.73,0,0,0-.77.87,3.18,3.18,0,0,0-.25,1.28,2.67,2.67,0,0,0,.21,1.08,1.61,1.61,0,0,0,.68.78,2.08,2.08,0,0,0,1.14.3,2.67,2.67,0,0,0,.86-.14,1.75,1.75,0,0,0,.72-.49,2,2,0,0,0,.44-.82,3.52,3.52,0,0,0,.15-1,2.89,2.89,0,0,0-.15-.94,1.48,1.48,0,0,0-.44-.7,1.7,1.7,0,0,0-.68-.38A2.92,2.92,0,0,0,196.68,89.44Z"/><path class="cls-3" d="M201,94.63c.15-2.19.22-3.95.22-5.25v-.53h1l0,1a3.77,3.77,0,0,1,.4-.54,1.8,1.8,0,0,1,.39-.29,2.47,2.47,0,0,1,.5-.19,2.69,2.69,0,0,1,.57-.06,2.16,2.16,0,0,1,.51.06c0,.25,0,.53,0,.84a2.94,2.94,0,0,0-.67-.1,1.67,1.67,0,0,0-.65.12,1.4,1.4,0,0,0-.51.33,1.94,1.94,0,0,0-.38.54,2.42,2.42,0,0,0-.18.65,13.56,13.56,0,0,0-.1,1.46c0,.51,0,1.06,0,1.63v.38H201Z"/><path class="cls-3" d="M205.72,89.77c0-.17.08-.42.12-.74a12.74,12.74,0,0,1,1.27-.25,9.51,9.51,0,0,1,1-.06,5.45,5.45,0,0,1,1,.09,2.35,2.35,0,0,1,.8.31,1,1,0,0,1,.42.48,1.66,1.66,0,0,1,.1.59q0,.39-.06,1.32c0,.62-.08,1.19-.1,1.72s0,1,0,1.4h-1.09l.13-1.56.09-1.84-.32.22a1.33,1.33,0,0,1-.24.11l-.3.11-.62.17-.66.18a4,4,0,0,0-.67.25,1.82,1.82,0,0,0-.41.27.87.87,0,0,0-.31.68.8.8,0,0,0,.2.54,1,1,0,0,0,.49.32,2.44,2.44,0,0,0,.71.08l.53,0a4.65,4.65,0,0,0,.75-.17,4.84,4.84,0,0,0-.19.68l-.73.1-.53,0a3.75,3.75,0,0,1-1.3-.18,1.42,1.42,0,0,1-.7-.56,1.55,1.55,0,0,1-.23-.81,1.46,1.46,0,0,1,.08-.48,1.87,1.87,0,0,1,.22-.39,2.06,2.06,0,0,1,.4-.36,4,4,0,0,1,.54-.29c.19-.07.41-.15.66-.22s.66-.18,1.22-.3l.45-.12.34-.12a1,1,0,0,0,.25-.13.72.72,0,0,0,.2-.19.9.9,0,0,0,.14-.22.66.66,0,0,0,0-.23.69.69,0,0,0-.19-.48,1,1,0,0,0-.51-.28,2.75,2.75,0,0,0-.74-.08,5.76,5.76,0,0,0-.82.06c-.27,0-.51.09-.71.14Z"/><path class="cls-3" d="M215.07,93.88c0,.19-.1.43-.15.74-.28.06-.49.1-.66.12l-.46,0a2.35,2.35,0,0,1-.87-.13,1,1,0,0,1-.51-.41,1.44,1.44,0,0,1-.18-.77,2.13,2.13,0,0,1,0-.22q0-.17.06-1.11l.15-2.56h-.81c0-.16,0-.39,0-.69h.83c0-.21,0-.57.06-1.09l1-.19c0,.56,0,1,0,1.28h1.69c0,.24,0,.47,0,.69h-1.68l-.17,3.21V93a1.45,1.45,0,0,0,.1.62.62.62,0,0,0,.3.3,1,1,0,0,0,.42.09,1.94,1.94,0,0,0,.33,0Z"/><path class="cls-3" d="M216,94.63l.11-1.44.11-2.45,0-1.89h1.11c0,.59-.08,1.22-.12,1.86s-.07,1.36-.09,2.13,0,1.37,0,1.79H216Zm.28-7c0-.36,0-.63,0-.81h1.17c0,.11,0,.38,0,.81h-1.16Z"/><path class="cls-3" d="M221.83,88.72a4.44,4.44,0,0,1,1.22.17,2.61,2.61,0,0,1,1,.54,2.32,2.32,0,0,1,.64.94,3.15,3.15,0,0,1,.22,1.19,3.78,3.78,0,0,1-.23,1.3,3.08,3.08,0,0,1-.66,1.06,2.61,2.61,0,0,1-1,.64,4.33,4.33,0,0,1-1.31.2,4.06,4.06,0,0,1-1.23-.18,2.81,2.81,0,0,1-1-.58,2.46,2.46,0,0,1-.64-1,3.29,3.29,0,0,1-.22-1.17A3.48,3.48,0,0,1,219,90.2a2.45,2.45,0,0,1,1.18-1.11A3.74,3.74,0,0,1,221.83,88.72Zm0,.72a2.21,2.21,0,0,0-1.14.3,1.69,1.69,0,0,0-.77.87,3.18,3.18,0,0,0-.25,1.28,2.67,2.67,0,0,0,.21,1.08,1.56,1.56,0,0,0,.68.78,2.06,2.06,0,0,0,1.14.3,2.72,2.72,0,0,0,.86-.14,1.72,1.72,0,0,0,.71-.49,2.17,2.17,0,0,0,.45-.82,3.52,3.52,0,0,0,.15-1,2.89,2.89,0,0,0-.15-.94,1.49,1.49,0,0,0-.45-.7,1.64,1.64,0,0,0-.68-.38A2.85,2.85,0,0,0,221.81,89.44Z"/><path class="cls-3" d="M226.07,94.63q.28-3.57.3-5.78h1.08L227.37,90l.24-.37a1.94,1.94,0,0,1,.25-.27,2.09,2.09,0,0,1,.36-.26,2.39,2.39,0,0,1,.48-.21,5.78,5.78,0,0,1,.57-.12,3.77,3.77,0,0,1,.58,0,4.23,4.23,0,0,1,1,.12,1.93,1.93,0,0,1,.8.39,1.3,1.3,0,0,1,.42.61,2.37,2.37,0,0,1,.1.72v.29c0,.14,0,.32,0,.55L232,93.79c0,.23,0,.51,0,.84h-1.08c0-.46.07-.9.09-1.33l.08-1.33c0-.45,0-.8,0-1a1.53,1.53,0,0,0-.19-.8,1.16,1.16,0,0,0-.58-.47,2.57,2.57,0,0,0-.9-.16,2.29,2.29,0,0,0-1.22.32,2,2,0,0,0-.72.82,3.78,3.78,0,0,0-.24,1.13c-.07.6-.11,1.55-.13,2.85h-1.1Z"/><path class="cls-3" d="M237.13,89.77c0-.17.07-.42.11-.74a12.74,12.74,0,0,1,1.27-.25,9.51,9.51,0,0,1,1.05-.06,5.45,5.45,0,0,1,1,.09,2.35,2.35,0,0,1,.8.31,1,1,0,0,1,.42.48,1.66,1.66,0,0,1,.1.59q0,.39-.06,1.32c0,.62-.08,1.19-.1,1.72s0,1,0,1.4h-1.09l.13-1.56.09-1.84-.32.22a1.33,1.33,0,0,1-.24.11l-.3.11-.62.17-.66.18a4.39,4.39,0,0,0-.67.25,1.82,1.82,0,0,0-.41.27.87.87,0,0,0-.31.68.8.8,0,0,0,.2.54,1,1,0,0,0,.49.32,2.48,2.48,0,0,0,.71.08l.53,0A4.65,4.65,0,0,0,240,94a4.84,4.84,0,0,0-.19.68l-.73.1-.53,0a3.75,3.75,0,0,1-1.3-.18,1.46,1.46,0,0,1-.7-.56,1.55,1.55,0,0,1-.23-.81,1.46,1.46,0,0,1,.08-.48,1.87,1.87,0,0,1,.22-.39A2.06,2.06,0,0,1,237,92a4.74,4.74,0,0,1,.54-.29c.19-.07.41-.15.66-.22s.66-.18,1.22-.3l.45-.12.34-.12a1,1,0,0,0,.25-.13.72.72,0,0,0,.2-.19.9.9,0,0,0,.14-.22.66.66,0,0,0,0-.23.65.65,0,0,0-.19-.48,1,1,0,0,0-.51-.28,2.75,2.75,0,0,0-.74-.08,5.76,5.76,0,0,0-.82.06c-.27,0-.51.09-.71.14Z"/><path class="cls-3" d="M243.32,94.63c.19-2.38.3-4.31.3-5.78h1.08L244.62,90l.24-.37.25-.27a2.09,2.09,0,0,1,.36-.26,2.67,2.67,0,0,1,.48-.21,5.78,5.78,0,0,1,.57-.12,3.86,3.86,0,0,1,.58,0,4.23,4.23,0,0,1,1,.12,1.93,1.93,0,0,1,.8.39,1.3,1.3,0,0,1,.42.61,2.36,2.36,0,0,1,.11.72s0,.15,0,.29,0,.32,0,.55l-.12,2.39c0,.23,0,.51,0,.84h-1.08c0-.46.07-.9.09-1.33l.08-1.33c0-.45,0-.8,0-1a1.44,1.44,0,0,0-.19-.8,1.16,1.16,0,0,0-.58-.47,2.57,2.57,0,0,0-.9-.16,2.23,2.23,0,0,0-1.21.32,1.92,1.92,0,0,0-.72.82,3.74,3.74,0,0,0-.25,1.13c-.06.6-.11,1.55-.13,2.85h-1.1Z"/><path class="cls-3" d="M256.63,94.64h-1l.07-1.23a5,5,0,0,1-.33.49,2.06,2.06,0,0,1-.33.33,2.46,2.46,0,0,1-.45.28,2.84,2.84,0,0,1-1.22.26,3.07,3.07,0,0,1-1.1-.2,2.27,2.27,0,0,1-.87-.57,2.15,2.15,0,0,1-.52-.87,3.22,3.22,0,0,1-.16-1,3.5,3.5,0,0,1,.3-1.41,3,3,0,0,1,.84-1.15,2.89,2.89,0,0,1,1.23-.63,5.78,5.78,0,0,1,1.46-.18,9.21,9.21,0,0,1,1.27.11c0-.41,0-.76,0-1v-1h1.11l-.18,3.23-.12,3.69Zm-.88-5.09a3.84,3.84,0,0,0-.62-.13l-.5,0a4.1,4.1,0,0,0-1.12.16,2.42,2.42,0,0,0-.94.52A2.38,2.38,0,0,0,252,91a2.86,2.86,0,0,0-.22,1.08,2.31,2.31,0,0,0,.21,1,1.49,1.49,0,0,0,.64.72,1.88,1.88,0,0,0,1,.26,2.61,2.61,0,0,0,.64-.08,2,2,0,0,0,.52-.26,2.23,2.23,0,0,0,.44-.47,2.6,2.6,0,0,0,.32-.67,5.07,5.07,0,0,0,.16-.91c0-.19,0-.54.05-1.08Z"/><path class="cls-2" d="M261.51,94.63l.15-2.14.17-4,0-.87c0-.22,0-.47,0-.76h5.38c0,.27-.05.53-.06.8l-.54,0-.69,0h-1c-1,0-1.63,0-2,0l-.11,2.67h1.68c.54,0,1.24,0,2.12,0,0,.27-.05.53-.06.79l-2.09,0-1.71,0-.11,2.81h2.92l1.32,0c0,.28-.05.55-.06.8h-5.37Z"/><path class="cls-3" d="M268.39,94.63q.3-3.57.31-5.78h1.07L269.69,90c.1-.16.19-.28.25-.37a2.6,2.6,0,0,1,.24-.27,2.09,2.09,0,0,1,.36-.26,2.49,2.49,0,0,1,.49-.21,5.05,5.05,0,0,1,.56-.12,3.86,3.86,0,0,1,.58,0,4.17,4.17,0,0,1,1,.12,1.87,1.87,0,0,1,.8.39,1.3,1.3,0,0,1,.42.61,2.36,2.36,0,0,1,.11.72s0,.15,0,.29,0,.32,0,.55l-.12,2.39c0,.23,0,.51,0,.84h-1.08c0-.46.07-.9.09-1.33l.08-1.33c0-.45,0-.8,0-1a1.53,1.53,0,0,0-.18-.8,1.23,1.23,0,0,0-.59-.47,2.57,2.57,0,0,0-.9-.16,2.23,2.23,0,0,0-1.21.32,1.92,1.92,0,0,0-.72.82,3.74,3.74,0,0,0-.25,1.13c-.06.6-.11,1.55-.13,2.85h-1.1Z"/><path class="cls-3" d="M276.33,96.31a10.3,10.3,0,0,0,1.34.3,6,6,0,0,0,1,.08,3.08,3.08,0,0,0,.93-.13,1.72,1.72,0,0,0,.62-.31,1.07,1.07,0,0,0,.32-.4,2.68,2.68,0,0,0,.23-.82c0-.27.06-.81.08-1.62-.1.17-.18.31-.26.42a3.19,3.19,0,0,1-.32.33,2.7,2.7,0,0,1-.47.3,3.22,3.22,0,0,1-.62.2,3,3,0,0,1-.73.08,3.84,3.84,0,0,1-1-.14,2.22,2.22,0,0,1-.86-.48,2,2,0,0,1-.58-.84,3,3,0,0,1-.2-1.07,3.65,3.65,0,0,1,.3-1.47,3,3,0,0,1,.86-1.17,3.47,3.47,0,0,1,1.28-.66,6,6,0,0,1,1.57-.19,15.12,15.12,0,0,1,2.33.23l-.07.71-.18,3.2c0,.06,0,.45,0,1.16l0,1.18a4,4,0,0,1-.1.67,2.48,2.48,0,0,1-.2.44,1.31,1.31,0,0,1-.27.35,1.8,1.8,0,0,1-.37.3,2.11,2.11,0,0,1-.46.21,4.09,4.09,0,0,1-.71.17,5.66,5.66,0,0,1-.82.06,11.51,11.51,0,0,1-1.18-.06,10.27,10.27,0,0,1-1.28-.21l0-.32C276.37,96.74,276.35,96.57,276.33,96.31ZM281,89.57a7.3,7.3,0,0,0-1.27-.13,4.81,4.81,0,0,0-1.1.13,2.43,2.43,0,0,0-.93.48A2.46,2.46,0,0,0,277,91a2.85,2.85,0,0,0-.24,1.14,2.23,2.23,0,0,0,.22,1,1.39,1.39,0,0,0,.66.69,2.14,2.14,0,0,0,1,.23,2.18,2.18,0,0,0,.87-.16,1.85,1.85,0,0,0,.69-.5,2.2,2.2,0,0,0,.46-.8,3.9,3.9,0,0,0,.18-.95C280.94,91.29,281,90.6,281,89.57Z"/><path class="cls-3" d="M283.49,94.63l.11-1.44.11-2.45.05-1.89h1.11c0,.59-.09,1.22-.12,1.86s-.07,1.36-.09,2.13,0,1.37,0,1.79h-1.13Zm.28-7c0-.36,0-.63,0-.81H285q0,.17,0,.81h-1.16Z"/><path class="cls-3" d="M286.23,94.63q.28-3.57.3-5.78h1.08L287.53,90l.24-.37a1.94,1.94,0,0,1,.25-.27,2.09,2.09,0,0,1,.36-.26,2.39,2.39,0,0,1,.48-.21,5.78,5.78,0,0,1,.57-.12,3.77,3.77,0,0,1,.58,0,4.23,4.23,0,0,1,1,.12,1.93,1.93,0,0,1,.8.39,1.3,1.3,0,0,1,.42.61,2.37,2.37,0,0,1,.1.72v.29c0,.14,0,.32,0,.55l-.12,2.39c0,.23,0,.51,0,.84H291.1c0-.46.07-.9.09-1.33l.08-1.33c0-.45,0-.8,0-1a1.53,1.53,0,0,0-.18-.8,1.16,1.16,0,0,0-.58-.47,2.57,2.57,0,0,0-.9-.16,2.26,2.26,0,0,0-1.22.32,2,2,0,0,0-.72.82,4.07,4.07,0,0,0-.25,1.13c-.06.6-.1,1.55-.13,2.85h-1.09Z"/><path class="cls-3" d="M298.82,93.73c0,.2-.09.47-.14.79a7.22,7.22,0,0,1-1,.19,8.43,8.43,0,0,1-.86.05,5.24,5.24,0,0,1-1.37-.17,2.48,2.48,0,0,1-1-.6,2.41,2.41,0,0,1-.62-1,3.44,3.44,0,0,1-.19-1.16,3.65,3.65,0,0,1,.34-1.58A2.58,2.58,0,0,1,295,89.14a3.36,3.36,0,0,1,1.77-.42,3.6,3.6,0,0,1,1.05.15,2,2,0,0,1,.84.46,2,2,0,0,1,.52.76,2.64,2.64,0,0,1,.18,1,2.6,2.6,0,0,1,0,.4h-4.65c0,.21,0,.37,0,.48a2.34,2.34,0,0,0,.27,1.11,1.76,1.76,0,0,0,.79.76,2.71,2.71,0,0,0,1.2.26A6.43,6.43,0,0,0,298.82,93.73ZM294.72,91h3.63a2.61,2.61,0,0,0-.05-.56,1.7,1.7,0,0,0-.16-.42,1.2,1.2,0,0,0-.31-.37,1.6,1.6,0,0,0-.47-.24,2.35,2.35,0,0,0-.6-.08,2.29,2.29,0,0,0-.66.09,2.21,2.21,0,0,0-.56.25,1.85,1.85,0,0,0-.41.38,2.05,2.05,0,0,0-.25.41A5.52,5.52,0,0,0,294.72,91Z"/><path class="cls-3" d="M305.44,93.73c-.05.2-.1.47-.15.79a7,7,0,0,1-1,.19,8.24,8.24,0,0,1-.85.05,5.19,5.19,0,0,1-1.37-.17A2.48,2.48,0,0,1,300.4,93a3.71,3.71,0,0,1-.19-1.16,3.65,3.65,0,0,1,.35-1.58,2.55,2.55,0,0,1,1-1.14,3.41,3.41,0,0,1,1.77-.42,3.72,3.72,0,0,1,1.06.15,2,2,0,0,1,.84.46,2.19,2.19,0,0,1,.52.76,2.64,2.64,0,0,1,.18,1,1.75,1.75,0,0,1,0,.4h-4.64q0,.31,0,.48a2.34,2.34,0,0,0,.27,1.11,1.76,1.76,0,0,0,.79.76,2.73,2.73,0,0,0,1.21.26A6.48,6.48,0,0,0,305.44,93.73ZM301.34,91H305a5.23,5.23,0,0,0-.05-.56,1.7,1.7,0,0,0-.16-.42,1.24,1.24,0,0,0-.32-.37,1.6,1.6,0,0,0-.47-.24,2.23,2.23,0,0,0-.6-.08,2.39,2.39,0,0,0-.66.09,2.14,2.14,0,0,0-.55.25,1.89,1.89,0,0,0-.66.79A2.75,2.75,0,0,0,301.34,91Z"/><path class="cls-3" d="M307,94.63c.15-2.19.22-3.95.22-5.25v-.53h1l-.05,1a4.73,4.73,0,0,1,.4-.54A1.64,1.64,0,0,1,309,89a2.17,2.17,0,0,1,.49-.19,2.78,2.78,0,0,1,.58-.06,2.14,2.14,0,0,1,.5.06c0,.25,0,.53,0,.84a2.94,2.94,0,0,0-.67-.1,1.67,1.67,0,0,0-.65.12,1.4,1.4,0,0,0-.51.33,1.73,1.73,0,0,0-.37.54,2.09,2.09,0,0,0-.19.65,13.56,13.56,0,0,0-.1,1.46c0,.51,0,1.06,0,1.63v.38H307Z"/><path class="cls-3" d="M311.4,94.63l.1-1.44.12-2.45.05-1.89h1.11c0,.59-.09,1.22-.13,1.86s-.06,1.36-.09,2.13,0,1.37,0,1.79H311.4Zm.28-7c0-.36,0-.63,0-.81h1.17c0,.11,0,.38,0,.81h-1.15Z"/><path class="cls-3" d="M314.14,94.63q.28-3.57.3-5.78h1.08L315.44,90l.24-.37a2.6,2.6,0,0,1,.24-.27,2.09,2.09,0,0,1,.36-.26,2.49,2.49,0,0,1,.49-.21,5.78,5.78,0,0,1,.57-.12,3.64,3.64,0,0,1,.57,0,4.17,4.17,0,0,1,1,.12,1.82,1.82,0,0,1,.8.39,1.3,1.3,0,0,1,.42.61,2.09,2.09,0,0,1,.11.72s0,.15,0,.29,0,.32,0,.55l-.12,2.39c0,.23,0,.51,0,.84H319c0-.46.07-.9.1-1.33l.08-1.33c0-.45,0-.8,0-1a1.53,1.53,0,0,0-.18-.8,1.2,1.2,0,0,0-.58-.47,2.59,2.59,0,0,0-.91-.16,2.25,2.25,0,0,0-1.21.32,1.92,1.92,0,0,0-.72.82,3.74,3.74,0,0,0-.25,1.13c-.06.6-.1,1.55-.13,2.85h-1.09Z"/><path class="cls-3" d="M322.07,96.31a10.4,10.4,0,0,0,1.35.3,6,6,0,0,0,1,.08,3.14,3.14,0,0,0,.94-.13,1.67,1.67,0,0,0,.61-.31,1.2,1.2,0,0,0,.33-.4,2.69,2.69,0,0,0,.22-.82q.06-.41.09-1.62-.15.25-.27.42a2.4,2.4,0,0,1-.32.33,2.37,2.37,0,0,1-.47.3,3,3,0,0,1-.62.2,2.92,2.92,0,0,1-.73.08,3.9,3.9,0,0,1-1-.14,2.22,2.22,0,0,1-.86-.48,2.11,2.11,0,0,1-.58-.84,3,3,0,0,1-.2-1.07,3.65,3.65,0,0,1,.3-1.47,3.13,3.13,0,0,1,.86-1.17,3.44,3.44,0,0,1,1.29-.66,5.93,5.93,0,0,1,1.57-.19,15.24,15.24,0,0,1,2.33.23l-.07.71-.18,3.2c0,.06,0,.45,0,1.16l0,1.18a3.9,3.9,0,0,1-.11.67,1.93,1.93,0,0,1-.2.44,1.31,1.31,0,0,1-.27.35,1.8,1.8,0,0,1-.37.3,1.92,1.92,0,0,1-.46.21,4,4,0,0,1-.7.17,5.9,5.9,0,0,1-.83.06,11.17,11.17,0,0,1-1.17-.06,10.4,10.4,0,0,1-1.29-.21l0-.32C322.11,96.74,322.1,96.57,322.07,96.31Zm4.68-6.74a7.5,7.5,0,0,0-1.27-.13,4.83,4.83,0,0,0-1.11.13,2.43,2.43,0,0,0-.93.48,2.46,2.46,0,0,0-.66.91,2.83,2.83,0,0,0-.23,1.14,2.37,2.37,0,0,0,.21,1,1.45,1.45,0,0,0,.67.69,2.13,2.13,0,0,0,1,.23,2.23,2.23,0,0,0,.88-.16,1.82,1.82,0,0,0,.68-.5,2.2,2.2,0,0,0,.46-.8,3.9,3.9,0,0,0,.18-.95C326.68,91.29,326.72,90.6,326.75,89.57Z"/><path class="cls-4" d="M123.69,65.8c-.68-.31-1.36-.65-2-1a5.53,5.53,0,0,0-5.49,9.61,37.61,37.61,0,0,0,18.71,5,38,38,0,0,0,10-1.35l.18,0Z"/><path class="cls-4" d="M116.52,22.13c7.56-8.39,20.89-10,31.71-3.81a26.76,26.76,0,0,1-2.3,47.62L157,72.26a37.83,37.83,0,0,0-3.31-63.55c-15.3-8.74-34.4-6.22-45.42,6a5.53,5.53,0,0,0,8.22,7.41Z"/><path class="cls-3" d="M69.17,59l-1.35,1.53A5.67,5.67,0,0,0,67.73,68,5.54,5.54,0,0,0,76,68l1.5-1.69a5.54,5.54,0,0,0-1.4-8.48h0A5.54,5.54,0,0,0,69.17,59Z"/><path class="cls-4" d="M115.8,14.05a5.68,5.68,0,0,0-7.69.88l-1.72,1.95a5.54,5.54,0,0,0,1.41,8.47h0a5.55,5.55,0,0,0,6.89-1.15l1.87-2.12A5.53,5.53,0,0,0,115.8,14.05Z"/><path class="cls-4" d="M118.92,75.11a5.57,5.57,0,0,1-2.74-.73L66.92,46.21a5.53,5.53,0,1,1,5.49-9.6l49.26,28.16a5.53,5.53,0,0,1-2.75,10.34Z"/><circle class="cls-5" cx="69.67" cy="41.57" r="4.26"/><path class="cls-5" d="M69.67,46.34a4.77,4.77,0,1,1,4.76-4.77A4.78,4.78,0,0,1,69.67,46.34Zm0-8.53a3.77,3.77,0,1,0,3.76,3.76A3.77,3.77,0,0,0,69.67,37.81Z"/><path class="cls-3" d="M67.69,60.62c-7.51,8.45-21.26,10.21-32,4.08a26.73,26.73,0,0,1,2.36-47.63L27,10.75a37.8,37.8,0,0,0,3.26,63.56,39,39,0,0,0,19.32,5.17A35.13,35.13,0,0,0,76,68a5.54,5.54,0,1,0-8.27-7.36Z"/><path class="cls-3" d="M60.72,17.44c.52.25,1,.52,1.55.81a5.53,5.53,0,0,0,5.5-9.6A37.73,37.73,0,0,0,38.94,5Z"/><path class="cls-2" d="M69.67,30.89A10.69,10.69,0,1,0,80.35,41.57,10.69,10.69,0,0,0,69.67,30.89Zm0,15.41a4.73,4.73,0,1,1,4.72-4.73A4.73,4.73,0,0,1,69.67,46.3Z"/><path class="cls-3" d="M116.67,36.61l-48.9-28a5.53,5.53,0,0,0-5.5,9.6l48.91,28a5.47,5.47,0,0,0,2.74.73,5.53,5.53,0,0,0,2.75-10.33ZM114,46.34a4.77,4.77,0,1,1,4.76-4.77A4.77,4.77,0,0,1,114,46.34Z"/><path class="cls-2" d="M114,30.89a10.69,10.69,0,1,0,10.69,10.68A10.69,10.69,0,0,0,114,30.89Zm0,15.41a4.73,4.73,0,1,1,4.73-4.73A4.73,4.73,0,0,1,114,46.3Z"/></svg>